<svg width="360" height="640" viewBox="0 0 360 640" fill="none" xmlns="http://www.w3.org/2000/svg">
  <defs>
    <linearGradient id="heroGradient" x1="54" y1="30" x2="302" y2="590" gradientUnits="userSpaceOnUse">
      <stop stop-color="#3A32F0" />
      <stop offset="1" stop-color="#AD6BFF" />
    </linearGradient>
    <linearGradient id="heroScreen" x1="108" y1="102" x2="252" y2="486" gradientUnits="userSpaceOnUse">
      <stop stop-color="#0D0B33" />
      <stop offset="1" stop-color="#221C60" />
    </linearGradient>
    <linearGradient id="heroGlow" x1="132" y1="150" x2="228" y2="450" gradientUnits="userSpaceOnUse">
      <stop stop-color="#7C74FF" stop-opacity="0.75" />
      <stop offset="1" stop-color="#E5D7FF" stop-opacity="0.2" />
    </linearGradient>
  </defs>
  <rect x="30" y="24" width="300" height="592" rx="48" fill="url(#heroGradient)" opacity="0.16" />
  <rect x="42" y="40" width="276" height="560" rx="44" fill="#FBF9FF" />
  <rect x="72" y="96" width="216" height="448" rx="30" fill="url(#heroScreen)" />
  <rect x="108" y="146" width="144" height="160" rx="24" fill="#2A2668" />
  <rect x="124" y="168" width="112" height="116" rx="20" fill="#2F89FF" opacity="0.85" />
  <rect x="124" y="308" width="112" height="116" rx="20" fill="#FCAC4B" opacity="0.85" />
  <rect x="108" y="454" width="144" height="56" rx="16" fill="#1D1A40" />
  <circle cx="180" cy="482" r="18" fill="#3A32F0" />
  <rect x="152" y="468" width="8" height="28" rx="4" fill="#FFFFFF" opacity="0.6" />
  <rect x="200" y="468" width="8" height="28" rx="4" fill="#FFFFFF" opacity="0.6" />
  <rect x="108" y="388" width="144" height="48" rx="12" fill="#1D1A40" opacity="0.6" />
  <rect x="124" y="402" width="64" height="12" rx="6" fill="#4B46A6" />
  <rect x="196" y="402" width="44" height="12" rx="6" fill="#4B46A6" />
  <circle cx="180" cy="80" r="14" fill="#F3F2FF" />
  <rect x="158" y="60" width="44" height="8" rx="4" fill="#E4E1FF" />
  <rect x="98" y="520" width="164" height="30" rx="14" fill="#E7E4FF" opacity="0.6" />
  <rect x="90" y="540" width="180" height="14" rx="7" fill="#E7E4FF" opacity="0.4" />
  <rect x="72" y="120" width="216" height="404" rx="30" fill="url(#heroGlow)" opacity="0.45" />
  <rect x="86" y="110" width="188" height="384" rx="26" stroke="#FFFFFF" stroke-opacity="0.08" stroke-width="2" />
</svg>
