<svg width="320" height="560" viewBox="0 0 320 560" fill="none" xmlns="http://www.w3.org/2000/svg">
  <defs>
    <linearGradient id="settingsBody" x1="36" y1="40" x2="284" y2="516" gradientUnits="userSpaceOnUse">
      <stop stop-color="#281F58" />
      <stop offset="1" stop-color="#423096" />
    </linearGradient>
  </defs>
  <rect x="24" y="28" width="272" height="504" rx="44" fill="#FBF9FF" />
  <rect x="48" y="92" width="224" height="376" rx="30" fill="url(#settingsBody)" />
  <rect x="72" y="136" width="176" height="44" rx="18" fill="#1E184B" />
  <rect x="92" y="148" width="92" height="20" rx="10" fill="#4E46C4" opacity="0.8" />
  <rect x="72" y="200" width="176" height="44" rx="18" fill="#1E184B" />
  <rect x="188" y="212" width="44" height="20" rx="10" fill="#48E0C6" />
  <rect x="72" y="264" width="176" height="44" rx="18" fill="#1E184B" />
  <rect x="188" y="276" width="44" height="20" rx="10" fill="#FF9F6A" />
  <rect x="72" y="328" width="176" height="44" rx="18" fill="#1E184B" />
  <rect x="188" y="340" width="44" height="20" rx="10" fill="#7D7CFF" />
  <rect x="72" y="392" width="176" height="56" rx="22" fill="#1E184B" />
  <rect x="92" y="410" width="88" height="16" rx="8" fill="#655DEC" opacity="0.8" />
  <rect x="92" y="432" width="60" height="10" rx="5" fill="#5149C6" opacity="0.8" />
  <rect x="132" y="60" width="56" height="8" rx="4" fill="#E6E2FF" />
  <circle cx="160" cy="44" r="10" fill="#EAE6FF" />
  <rect x="124" y="470" width="72" height="24" rx="12" fill="#F1EEFF" opacity="0.7" />
</svg>
